<svg width="604.8070068359375px" height="178.4px" xmlns="http://www.w3.org/2000/svg" viewBox="-52.40350341796875 -14.200000000000003 604.8070068359375 178.4" style="background: rgba(0, 0, 0, 0);" preserveAspectRatio="xMidYMid"><defs><filter id="editing-vr"><feFlood flood-color="#f00" flood-opacity="0.7" result="c1"></feFlood><feFlood flood-color="#00f" flood-opacity="0.7" result="c3"></feFlood><feComposite operator="in" in="c1" in2="SourceAlpha" result="text-c1"></feComposite><feComposite operator="in" in="c3" in2="SourceAlpha" result="text-c3"></feComposite><feOffset in="text-c1" dx="5" dy="-1" result="text1"></feOffset><feOffset in="text-c3" dx="-5" dy="1" result="text3"></feOffset><feBlend in="SourceGraphic" in2="text1" mode="multiply" result="text4"></feBlend><feBlend in="text4" in2="text3" mode="multiply"></feBlend></filter></defs><g filter="url(#editing-vr)"><g transform="translate(34.95733571052551, 121.54999923706055)"><path d="M3.30-10L3.30-10L3.30-10Q3.30-12.70 4.70-19.50L4.70-19.50L10-46.50L4.10-46.50L4.50-49.50L4.50-49.50Q16.50-53.10 28.10-61.90L28.10-61.90L32.90-61.90L30.50-51L38.30-51L37.40-46.50L29.70-46.50L24.60-19.50L24.60-19.50Q23.30-13.30 23.30-11.20L23.30-11.20L23.30-11.20Q23.30-6.40 27.50-5.40L27.50-5.40L27.50-5.40Q26.50-2 22.90 0L22.90 0L22.90 0Q19.30 2 14.20 2L14.20 2L14.20 2Q9.10 2 6.20-1.20L6.20-1.20L6.20-1.20Q3.30-4.40 3.30-10ZM61.80-5.50L61.80-5.50L61.80-5.50Q58.70 2 48.80 2L48.80 2L48.80 2Q43.70 2 40.50-1.50L40.50-1.50L40.50-1.50Q37.80-4.60 37.80-7.70L37.80-7.70L37.80-7.70Q37.80-15.80 41.50-31.60L41.50-31.60L45.20-51L65.50-53L59.40-21.40L59.40-21.40Q57.70-14 57.70-11.40L57.70-11.40L57.70-11.40Q57.70-5.70 61.80-5.50ZM47-64.90L47-64.90L47-64.90Q47-68.80 50.25-70.90L50.25-70.90L50.25-70.90Q53.50-73 58.20-73L58.20-73L58.20-73Q62.90-73 65.75-70.90L65.75-70.90L65.75-70.90Q68.60-68.80 68.60-64.90L68.60-64.90L68.60-64.90Q68.60-61 65.45-59L65.45-59L65.45-59Q62.30-57 57.60-57L57.60-57L57.60-57Q52.90-57 49.95-59L49.95-59L49.95-59Q47-61 47-64.90ZM112.60 2L112.60 2L112.60 2Q100.50 2 100.50-7.40L100.50-7.40L100.50-7.40Q100.60-10 101.40-14.40L101.40-14.40L103.20-23.60L103.20-23.60Q105.90-36.60 105.90-39.50L105.90-39.50L105.90-39.50Q105.90-45.30 102.50-45.30L102.50-45.30L102.50-45.30Q96.80-45.30 93.80-30.40L93.80-30.40L87.90 0L67.80 2L78.20-51.10L94.60-53L93-43.20L93-43.20Q97.70-53 112.10-53L112.10-53L112.10-53Q119.10-53 122.05-50.05L122.05-50.05L122.05-50.05Q125-47.10 125-40.50L125-40.50L125-40.50Q125-34.30 121.80-19.80L121.80-19.80L121.80-19.80Q120.30-13.30 120.30-10.85L120.30-10.85L120.30-10.85Q120.30-8.40 121.65-7L121.65-7L121.65-7Q123-5.60 125-5.40L125-5.40L125-5.40Q124-2 120.55 0L120.55 0L120.55 0Q117.10 2 112.60 2ZM164.80-11.30L164.80-11.30L164.80-11.30Q159.60-5.90 150.10-5.90L150.10-5.90L150.10-5.90Q138.20-5.90 135.70-14.60L135.70-14.60L135.70-14.60Q134.90-17.20 134.90-20.10L134.90-20.10L134.90-20.10Q134.90-23 135.50-26L135.50-26L140.20-51L160.50-53L155-23.90L155-23.90Q154.80-22.60 154.50-21.20L154.50-21.20L154.50-21.20Q154.20-19.80 154.20-18.35L154.20-18.35L154.20-18.35Q154.20-16.90 154.70-15.95L154.70-15.95L154.70-15.95Q155.20-15 155.90-14.40L155.90-14.40L155.90-14.40Q157.10-13.60 159.25-13.60L159.25-13.60L159.25-13.60Q161.40-13.60 163.25-16.20L163.25-16.20L163.25-16.20Q165.10-18.80 166-23.30L166-23.30L171.50-51L191.20-53L183.70-13.70L183.70-13.70Q180 5.50 172.40 13.10L172.40 13.10L172.40 13.10Q168.50 17 163.45 18.55L163.45 18.55L163.45 18.55Q158.40 20.10 151.90 20.10L151.90 20.10L151.90 20.10Q141.40 20.10 135.40 16.80L135.40 16.80L135.40 16.80Q129.40 13.50 129.40 8L129.40 8L129.40 8Q129.40 3.90 132.50 1.55L132.50 1.55L132.50 1.55Q135.60-0.80 140.40-0.80L140.40-0.80L140.40-0.80Q144.60-0.80 147.80 1L147.80 1L147.80 1Q149.70 2.10 150.60 3.50L150.60 3.50L150.60 3.50Q148.30 5.50 148.30 8.80L148.30 8.80L148.30 8.80Q148.30 13.20 152.30 13.20L152.30 13.20L152.30 13.20Q158.90 13.20 162.70-2L162.70-2L162.70-2Q163.80-6.50 164.80-11.30ZM264.50-41.60L264.50-41.60L264.50-41.60Q264.50-37.40 261-34.80L261-34.80L261-34.80Q257.50-32.20 251.80-32.20L251.80-32.20L251.80-32.20Q249.40-32.20 248.00-32.90L248.00-32.90L248.00-32.90Q249.10-35.50 249.45-38.75L249.45-38.75L249.45-38.75Q249.80-42 249.80-42.90L249.80-42.90L249.80-42.90Q249.80-47.10 246.90-47.10L246.90-47.10L246.90-47.10Q244.90-47.10 242.65-44.60L242.65-44.60L242.65-44.60Q240.40-42.10 238.50-38.20L238.50-38.20L238.50-38.20Q234.30-29.20 234.30-20.10L234.30-20.10L234.30-20.10Q234.30-15.10 236.20-12.85L236.20-12.85L236.20-12.85Q238.10-10.60 242.30-10.60L242.30-10.60L242.30-10.60Q248.10-10.60 252.70-15.40L252.70-15.40L252.70-15.40Q254.00-16.90 254.70-18.60L254.70-18.60L254.70-18.60Q258.50-16.60 258.50-11.10L258.50-11.10L258.50-11.10Q258.50-5.50 252.30-1.80L252.30-1.80L252.30-1.80Q245.90 2 235.70 2L235.70 2L235.70 2Q215.40 2 215.40-19.50L215.40-19.50L215.40-19.50Q215.40-35.20 224.30-44.20L224.30-44.20L224.30-44.20Q232.90-53 248.70-53L248.70-53L248.70-53Q264.50-53 264.50-41.60ZM317.50-11.10L317.50-11.10L317.50-11.10Q317.50-6.70 322-5.40L322-5.40L322-5.40Q320.90-1.70 316.60 0.30L316.60 0.30L316.60 0.30Q313 2 309.05 2L309.05 2L309.05 2Q305.10 2 303.05 0.95L303.05 0.95L303.05 0.95Q301-0.10 299.90-1.80L299.90-1.80L299.90-1.80Q298.10-4.40 298.10-9.30L298.10-9.30L298.10-9.30Q298.10-12.20 299.70-20.20L299.70-20.20L301.10-27.80L301.10-27.80Q302.80-36.50 302.80-39.70L302.80-39.70L302.80-39.70Q302.80-45.30 299.70-45.30L299.70-45.30L299.70-45.30Q295.80-45.30 293.30-39.60L293.30-39.60L293.30-39.60Q292.30-37.40 291.60-34.10L291.60-34.10L284.80 0L264.70 2L278.80-70L298.90-72L298.10-68L298.10-68Q295.30-52.60 292.90-47.40L292.90-47.40L292.90-47.40Q298.50-53 308.80-53L308.80-53L308.80-53Q319.70-53 321.70-45.80L321.70-45.80L321.70-45.80Q322.40-43.50 322.40-41.50L322.40-41.50L322.40-41.50Q322.40-39.50 322.25-37.95L322.25-37.95L322.25-37.95Q322.10-36.40 321.60-33.60L321.60-33.60L320.30-26.40L318-15.10L318-15.10Q317.50-12.80 317.50-11.10ZM334.45-3L334.45-3L334.45-3Q332.10-5.60 331.05-9.70L331.05-9.70L331.05-9.70Q330-13.80 330-20.50L330-20.50L330-20.50Q330-27.20 332.30-33.30L332.30-33.30L332.30-33.30Q334.60-39.40 338.80-43.80L338.80-43.80L338.80-43.80Q347.40-53 361.60-53L361.60-53L361.60-53Q366.70-53 370.40-51.30L370.40-51.30L387.50-53L380.10-14L380.10-14Q379.80-12.80 379.80-10.60L379.80-10.60L379.80-10.60Q379.80-8.40 381.15-7L381.15-7L381.15-7Q382.50-5.60 384.50-5.40L384.50-5.40L384.50-5.40Q383.50-2 379.85 0L379.85 0L379.85 0Q376.20 2 372.10 2L372.10 2L372.10 2Q368 2 365.25 0.45L365.25 0.45L365.25 0.45Q362.50-1.10 361.70-3.70L361.70-3.70L361.70-3.70Q360.10-1.20 356.70 0.40L356.70 0.40L356.70 0.40Q353.30 2 348.75 2L348.75 2L348.75 2Q344.20 2 340.50 0.80L340.50 0.80L340.50 0.80Q336.80-0.40 334.45-3ZM355.55-43.60L355.55-43.60L355.55-43.60Q354.40-41.80 353.40-38.75L353.40-38.75L353.40-38.75Q352.40-35.70 350.75-27.55L350.75-27.55L350.75-27.55Q349.10-19.40 349.10-13.60L349.10-13.60L349.10-13.60Q349.10-7.80 350-6.10L350-6.10L350-6.10Q350.90-4.40 352.50-4.40L352.50-4.40L352.50-4.40Q355.70-4.40 358.05-7.45L358.05-7.45L358.05-7.45Q360.40-10.50 361.30-15.90L361.30-15.90L366.60-45.20L366.60-45.20Q364.50-47 362.05-47L362.05-47L362.05-47Q359.60-47 358.15-46.20L358.15-46.20L358.15-46.20Q356.70-45.40 355.55-43.60ZM394.50-10L394.50-10L394.50-10Q394.50-12.70 395.90-19.50L395.90-19.50L401.20-46.50L395.30-46.50L395.70-49.50L395.70-49.50Q407.70-53.10 419.30-61.90L419.30-61.90L424.10-61.90L421.70-51L429.50-51L428.60-46.50L420.90-46.50L415.80-19.50L415.80-19.50Q414.50-13.30 414.50-11.20L414.50-11.20L414.50-11.20Q414.50-6.40 418.70-5.40L418.70-5.40L418.70-5.40Q417.70-2 414.10 0L414.10 0L414.10 0Q410.50 2 405.40 2L405.40 2L405.40 2Q400.30 2 397.40-1.20L397.40-1.20L397.40-1.20Q394.50-4.40 394.50-10Z" fill="#444"></path></g></g><style>text {
  font-size: 64px;
  font-family: Arial Black;
  dominant-baseline: central;
  text-anchor: middle;
}</style></svg>